<?xml version="1.0" encoding="UTF-8"?>
<svg width="22px" height="40px" viewBox="0 0 22 40" version="1.1" xmlns="http://www.w3.org/2000/svg" xmlns:xlink="http://www.w3.org/1999/xlink">
    <title>8D67E5D9-D208-43D2-B46D-55636E12C383</title>
    <g id="Beautiful-Beginnings----Final" stroke="none" stroke-width="1" fill="none" fill-rule="evenodd">
        <g id="Home---Desktop---Slide-1" transform="translate(-63.000000, -436.000000)" fill="#FFFFFF">
            <g id="Hero" transform="translate(-1.000000, 130.000000)">
                <g id="Left-Arrow" transform="translate(76.000000, 325.500000) scale(-1, 1) translate(-76.000000, -325.500000) translate(51.000000, 288.000000)">
                    <path d="M17.2210807,18.3810772 L35.8255603,36.9855569 C36.1034772,37.2634738 36.229382,37.6358389 36.2032747,37.9993316 C36.2296144,38.3634734 36.1037339,38.7362696 35.8255603,39.0144431 L35.8255603,39.0144431 L17.2210807,57.6189228 C16.7129777,58.1270257 15.8891801,58.1270257 15.3810772,57.6189228 C14.8729743,57.1108199 14.8729743,56.2870223 15.3810772,55.7789193 L15.3810772,55.7789193 L33.16,38 L15.3810772,20.2210807 C14.8729743,19.7129777 14.8729743,18.8891801 15.3810772,18.3810772 C15.8891801,17.8729743 16.7129777,17.8729743 17.2210807,18.3810772 Z" id="Combined-Shape"></path>
                </g>
            </g>
        </g>
    </g>
</svg>